<mxfile host="Electron" modified="2024-01-09T16:31:52.104Z" agent="Mozilla/5.0 (Windows NT 10.0; Win64; x64) AppleWebKit/537.36 (KHTML, like Gecko) draw.io/22.1.16 Chrome/120.0.6099.109 Electron/28.1.0 Safari/537.36" etag="jfIrwnI3a2G5NJfgxi20" version="22.1.16" type="device">
  <diagram name="Page-1" id="13e1069c-82ec-6db2-03f1-153e76fe0fe0">
    <mxGraphModel dx="5502" dy="3783" grid="1" gridSize="10" guides="1" tooltips="1" connect="1" arrows="1" fold="1" page="1" pageScale="1" pageWidth="4681" pageHeight="3300" background="none" math="0" shadow="0">
      <root>
        <mxCell id="0" />
        <mxCell id="1" parent="0" />
        <mxCell id="7baba1c4bc27f4b0-2" value="Программа" style="shape=umlLifeline;perimeter=lifelinePerimeter;whiteSpace=wrap;html=1;container=1;collapsible=0;recursiveResize=0;outlineConnect=0;rounded=1;shadow=0;comic=0;labelBackgroundColor=none;strokeWidth=1;fontFamily=Verdana;fontSize=12;align=center;" parent="1" vertex="1">
          <mxGeometry x="280" y="80" width="100" height="710" as="geometry" />
        </mxCell>
        <mxCell id="7baba1c4bc27f4b0-10" value="" style="html=1;points=[];perimeter=orthogonalPerimeter;rounded=0;shadow=0;comic=0;labelBackgroundColor=none;strokeWidth=1;fontFamily=Verdana;fontSize=12;align=center;" parent="7baba1c4bc27f4b0-2" vertex="1">
          <mxGeometry x="45" y="40" width="10" height="560" as="geometry" />
        </mxCell>
        <mxCell id="-zt7evYeH_7EeEriMYQJ-5" value="" style="html=1;verticalAlign=bottom;endArrow=block;labelBackgroundColor=none;fontFamily=Verdana;fontSize=12;edgeStyle=elbowEdgeStyle;elbow=vertical;" parent="7baba1c4bc27f4b0-2" edge="1">
          <mxGeometry relative="1" as="geometry">
            <mxPoint x="-150" y="110" as="sourcePoint" />
            <mxPoint x="55" y="110" as="targetPoint" />
            <Array as="points">
              <mxPoint x="-55" y="110" />
            </Array>
          </mxGeometry>
        </mxCell>
        <mxCell id="-zt7evYeH_7EeEriMYQJ-6" value="Нажатие&amp;nbsp; клавиши &lt;br&gt;&quot;Начать поиск файлов с паролями&quot;" style="edgeLabel;html=1;align=center;verticalAlign=middle;resizable=0;points=[];" parent="-zt7evYeH_7EeEriMYQJ-5" vertex="1" connectable="0">
          <mxGeometry x="0.2018" y="1" relative="1" as="geometry">
            <mxPoint x="-31" y="-19" as="offset" />
          </mxGeometry>
        </mxCell>
        <mxCell id="-zt7evYeH_7EeEriMYQJ-7" value="" style="html=1;verticalAlign=bottom;endArrow=block;entryX=0;entryY=0;labelBackgroundColor=none;fontFamily=Verdana;fontSize=12;edgeStyle=elbowEdgeStyle;elbow=vertical;" parent="7baba1c4bc27f4b0-2" edge="1">
          <mxGeometry relative="1" as="geometry">
            <mxPoint x="55" y="180" as="sourcePoint" />
            <mxPoint x="235" y="180" as="targetPoint" />
            <mxPoint as="offset" />
          </mxGeometry>
        </mxCell>
        <mxCell id="-zt7evYeH_7EeEriMYQJ-8" value="Получение доступа к &lt;br&gt;рабочему столу пользователя" style="edgeLabel;html=1;align=center;verticalAlign=middle;resizable=0;points=[];" parent="-zt7evYeH_7EeEriMYQJ-7" vertex="1" connectable="0">
          <mxGeometry x="0.314" relative="1" as="geometry">
            <mxPoint x="-33" y="-20" as="offset" />
          </mxGeometry>
        </mxCell>
        <mxCell id="-zt7evYeH_7EeEriMYQJ-17" value="" style="html=1;verticalAlign=bottom;endArrow=block;labelBackgroundColor=none;fontFamily=Verdana;fontSize=12;elbow=vertical;edgeStyle=orthogonalEdgeStyle;curved=1;exitX=1.038;exitY=0.345;exitPerimeter=0;" parent="7baba1c4bc27f4b0-2" edge="1">
          <mxGeometry relative="1" as="geometry">
            <mxPoint x="55" y="110" as="sourcePoint" />
            <mxPoint x="60" y="148" as="targetPoint" />
            <Array as="points">
              <mxPoint x="109.66666666666652" y="110" />
              <mxPoint x="109.66666666666652" y="148" />
            </Array>
          </mxGeometry>
        </mxCell>
        <mxCell id="-zt7evYeH_7EeEriMYQJ-18" value="Уже задан словарь &lt;br&gt;названий файлов" style="edgeLabel;html=1;align=center;verticalAlign=middle;resizable=0;points=[];" parent="-zt7evYeH_7EeEriMYQJ-17" vertex="1" connectable="0">
          <mxGeometry x="-0.0414" y="-3" relative="1" as="geometry">
            <mxPoint x="13" y="7" as="offset" />
          </mxGeometry>
        </mxCell>
        <mxCell id="-zt7evYeH_7EeEriMYQJ-25" value="Предоставление доступа" style="html=1;verticalAlign=bottom;endArrow=open;dashed=1;endSize=8;labelBackgroundColor=none;fontFamily=Verdana;fontSize=11;edgeStyle=elbowEdgeStyle;elbow=vertical;" parent="7baba1c4bc27f4b0-2" edge="1">
          <mxGeometry relative="1" as="geometry">
            <mxPoint x="50" y="210" as="targetPoint" />
            <Array as="points" />
            <mxPoint x="235" y="210" as="sourcePoint" />
          </mxGeometry>
        </mxCell>
        <mxCell id="-zt7evYeH_7EeEriMYQJ-27" value="" style="html=1;verticalAlign=bottom;endArrow=block;labelBackgroundColor=none;fontFamily=Verdana;fontSize=12;elbow=vertical;edgeStyle=orthogonalEdgeStyle;curved=1;exitX=1.038;exitY=0.345;exitPerimeter=0;" parent="7baba1c4bc27f4b0-2" edge="1">
          <mxGeometry relative="1" as="geometry">
            <mxPoint x="55" y="330" as="sourcePoint" />
            <mxPoint x="60" y="368" as="targetPoint" />
            <Array as="points">
              <mxPoint x="109.66666666666652" y="330" />
              <mxPoint x="109.66666666666652" y="368" />
            </Array>
          </mxGeometry>
        </mxCell>
        <mxCell id="-zt7evYeH_7EeEriMYQJ-28" value="Хеширование каждой &lt;br&gt;отдельной строки" style="edgeLabel;html=1;align=center;verticalAlign=middle;resizable=0;points=[];" parent="-zt7evYeH_7EeEriMYQJ-27" vertex="1" connectable="0">
          <mxGeometry x="-0.0414" y="-3" relative="1" as="geometry">
            <mxPoint x="13" y="7" as="offset" />
          </mxGeometry>
        </mxCell>
        <mxCell id="-zt7evYeH_7EeEriMYQJ-40" value="" style="html=1;verticalAlign=bottom;endArrow=block;labelBackgroundColor=none;fontFamily=Verdana;fontSize=12;edgeStyle=elbowEdgeStyle;elbow=vertical;" parent="7baba1c4bc27f4b0-2" edge="1">
          <mxGeometry relative="1" as="geometry">
            <mxPoint x="40" y="430" as="sourcePoint" />
            <mxPoint x="-150" y="430" as="targetPoint" />
            <Array as="points">
              <mxPoint x="-20" y="430" />
              <mxPoint x="-44.5" y="410" />
              <mxPoint x="-59.5" y="390" />
            </Array>
          </mxGeometry>
        </mxCell>
        <mxCell id="-zt7evYeH_7EeEriMYQJ-41" value="Если авторизация неуспешная, &lt;br&gt;то вывод уведомления:&amp;nbsp;&lt;br&gt;Не удалось отправить &lt;br&gt;данные на почту&amp;nbsp;" style="edgeLabel;html=1;align=center;verticalAlign=middle;resizable=0;points=[];" parent="-zt7evYeH_7EeEriMYQJ-40" vertex="1" connectable="0">
          <mxGeometry x="0.2018" y="1" relative="1" as="geometry">
            <mxPoint x="17" y="-31" as="offset" />
          </mxGeometry>
        </mxCell>
        <mxCell id="-zt7evYeH_7EeEriMYQJ-46" value="" style="html=1;verticalAlign=bottom;endArrow=block;labelBackgroundColor=none;fontFamily=Verdana;fontSize=12;edgeStyle=elbowEdgeStyle;elbow=vertical;" parent="7baba1c4bc27f4b0-2" edge="1">
          <mxGeometry relative="1" as="geometry">
            <mxPoint x="40" y="600" as="sourcePoint" />
            <mxPoint x="-150" y="600" as="targetPoint" />
            <Array as="points">
              <mxPoint x="-20" y="600" />
              <mxPoint x="-44.5" y="580" />
              <mxPoint x="-59.5" y="560" />
            </Array>
          </mxGeometry>
        </mxCell>
        <mxCell id="-zt7evYeH_7EeEriMYQJ-47" value="Вывод уведомления в случае успеха:&lt;br&gt;количество найденных файлов, &lt;br&gt;их названия и количество &lt;br&gt;найденных паролей" style="edgeLabel;html=1;align=center;verticalAlign=middle;resizable=0;points=[];" parent="-zt7evYeH_7EeEriMYQJ-46" vertex="1" connectable="0">
          <mxGeometry x="0.2018" y="1" relative="1" as="geometry">
            <mxPoint x="17" y="-31" as="offset" />
          </mxGeometry>
        </mxCell>
        <mxCell id="7baba1c4bc27f4b0-11" value="" style="html=1;verticalAlign=bottom;endArrow=block;labelBackgroundColor=none;fontFamily=Verdana;fontSize=12;edgeStyle=elbowEdgeStyle;elbow=vertical;" parent="7baba1c4bc27f4b0-2" edge="1">
          <mxGeometry relative="1" as="geometry">
            <mxPoint x="-150" y="70" as="sourcePoint" />
            <mxPoint x="55" y="70" as="targetPoint" />
            <Array as="points">
              <mxPoint x="-55" y="70" />
            </Array>
          </mxGeometry>
        </mxCell>
        <mxCell id="-zt7evYeH_7EeEriMYQJ-4" value="Ввод названия почты и пароля" style="edgeLabel;html=1;align=center;verticalAlign=middle;resizable=0;points=[];" parent="7baba1c4bc27f4b0-11" vertex="1" connectable="0">
          <mxGeometry x="0.2018" y="1" relative="1" as="geometry">
            <mxPoint x="-31" y="-19" as="offset" />
          </mxGeometry>
        </mxCell>
        <mxCell id="1eUNo9QsRgCgycoDIhRz-1" value="" style="html=1;points=[];perimeter=orthogonalPerimeter;rounded=0;shadow=0;comic=0;labelBackgroundColor=none;strokeWidth=1;fontFamily=Verdana;fontSize=12;align=center;" vertex="1" parent="7baba1c4bc27f4b0-2">
          <mxGeometry x="50" y="110" width="15" height="40" as="geometry" />
        </mxCell>
        <mxCell id="1eUNo9QsRgCgycoDIhRz-2" value="" style="html=1;points=[];perimeter=orthogonalPerimeter;rounded=0;shadow=0;comic=0;labelBackgroundColor=none;strokeWidth=1;fontFamily=Verdana;fontSize=12;align=center;" vertex="1" parent="7baba1c4bc27f4b0-2">
          <mxGeometry x="50" y="330" width="15" height="40" as="geometry" />
        </mxCell>
        <mxCell id="7baba1c4bc27f4b0-3" value="ОС&amp;nbsp;" style="shape=umlLifeline;perimeter=lifelinePerimeter;whiteSpace=wrap;html=1;container=1;collapsible=0;recursiveResize=0;outlineConnect=0;rounded=1;shadow=0;comic=0;labelBackgroundColor=none;strokeWidth=1;fontFamily=Verdana;fontSize=12;align=center;" parent="1" vertex="1">
          <mxGeometry x="470" y="80" width="100" height="710" as="geometry" />
        </mxCell>
        <mxCell id="7baba1c4bc27f4b0-13" value="" style="html=1;points=[];perimeter=orthogonalPerimeter;rounded=0;shadow=0;comic=0;labelBackgroundColor=none;strokeWidth=1;fontFamily=Verdana;fontSize=12;align=center;" parent="7baba1c4bc27f4b0-3" vertex="1">
          <mxGeometry x="45" y="180" width="10" height="130" as="geometry" />
        </mxCell>
        <mxCell id="-zt7evYeH_7EeEriMYQJ-44" value="" style="html=1;verticalAlign=bottom;endArrow=block;labelBackgroundColor=none;fontFamily=Verdana;fontSize=12;edgeStyle=elbowEdgeStyle;elbow=vertical;" parent="7baba1c4bc27f4b0-3" edge="1">
          <mxGeometry relative="1" as="geometry">
            <mxPoint x="-135" y="560" as="sourcePoint" />
            <mxPoint x="235" y="560" as="targetPoint" />
            <mxPoint as="offset" />
            <Array as="points">
              <mxPoint x="205" y="560" />
            </Array>
          </mxGeometry>
        </mxCell>
        <mxCell id="-zt7evYeH_7EeEriMYQJ-45" value="Закрытие соединения с почтовым сервером" style="edgeLabel;html=1;align=center;verticalAlign=middle;resizable=0;points=[];" parent="-zt7evYeH_7EeEriMYQJ-44" vertex="1" connectable="0">
          <mxGeometry x="0.314" relative="1" as="geometry">
            <mxPoint x="-42" y="-16" as="offset" />
          </mxGeometry>
        </mxCell>
        <mxCell id="-zt7evYeH_7EeEriMYQJ-26" value="Считывание строк из &lt;br&gt;найденных файлов и запись &lt;br&gt;названий файлов" style="html=1;verticalAlign=bottom;endArrow=open;dashed=1;endSize=8;labelBackgroundColor=none;fontFamily=Verdana;fontSize=11;edgeStyle=elbowEdgeStyle;elbow=vertical;" parent="7baba1c4bc27f4b0-3" edge="1">
          <mxGeometry relative="1" as="geometry">
            <mxPoint x="-140" y="310" as="targetPoint" />
            <Array as="points" />
            <mxPoint x="45" y="310" as="sourcePoint" />
          </mxGeometry>
        </mxCell>
        <mxCell id="7baba1c4bc27f4b0-4" value="Почтовый сервер" style="shape=umlLifeline;perimeter=lifelinePerimeter;whiteSpace=wrap;html=1;container=1;collapsible=0;recursiveResize=0;outlineConnect=0;rounded=1;shadow=0;comic=0;labelBackgroundColor=none;strokeWidth=1;fontFamily=Verdana;fontSize=12;align=center;" parent="1" vertex="1">
          <mxGeometry x="660" y="80" width="100" height="710" as="geometry" />
        </mxCell>
        <mxCell id="7baba1c4bc27f4b0-16" value="" style="html=1;points=[];perimeter=orthogonalPerimeter;rounded=0;shadow=0;comic=0;labelBackgroundColor=none;strokeWidth=1;fontFamily=Verdana;fontSize=12;align=center;" parent="7baba1c4bc27f4b0-4" vertex="1">
          <mxGeometry x="45" y="400" width="10" height="160" as="geometry" />
        </mxCell>
        <mxCell id="-zt7evYeH_7EeEriMYQJ-32" value="" style="html=1;verticalAlign=bottom;endArrow=block;labelBackgroundColor=none;fontFamily=Verdana;fontSize=12;edgeStyle=elbowEdgeStyle;elbow=vertical;exitX=1.31;exitY=0.691;exitDx=0;exitDy=0;exitPerimeter=0;" parent="7baba1c4bc27f4b0-4" edge="1">
          <mxGeometry relative="1" as="geometry">
            <mxPoint x="-326" y="480" as="sourcePoint" />
            <mxPoint x="46" y="480" as="targetPoint" />
            <mxPoint as="offset" />
          </mxGeometry>
        </mxCell>
        <mxCell id="-zt7evYeH_7EeEriMYQJ-33" value="Отправка каждой хешированной строки отдельным письмом&lt;br&gt;в особом формате" style="edgeLabel;html=1;align=center;verticalAlign=middle;resizable=0;points=[];" parent="-zt7evYeH_7EeEriMYQJ-32" vertex="1" connectable="0">
          <mxGeometry x="0.314" relative="1" as="geometry">
            <mxPoint x="-42" y="-16" as="offset" />
          </mxGeometry>
        </mxCell>
        <mxCell id="7baba1c4bc27f4b0-8" value="Пользователь" style="shape=umlLifeline;perimeter=lifelinePerimeter;whiteSpace=wrap;html=1;container=1;collapsible=0;recursiveResize=0;outlineConnect=0;rounded=1;shadow=0;comic=0;labelBackgroundColor=none;strokeWidth=1;fontFamily=Verdana;fontSize=12;align=center;" parent="1" vertex="1">
          <mxGeometry x="70" y="80" width="100" height="710" as="geometry" />
        </mxCell>
        <mxCell id="7baba1c4bc27f4b0-9" value="" style="html=1;points=[];perimeter=orthogonalPerimeter;rounded=0;shadow=0;comic=0;labelBackgroundColor=none;strokeWidth=1;fontFamily=Verdana;fontSize=12;align=center;" parent="7baba1c4bc27f4b0-8" vertex="1">
          <mxGeometry x="45" y="40" width="10" height="560" as="geometry" />
        </mxCell>
        <mxCell id="7baba1c4bc27f4b0-40" value="Пользователь приложения" style="shape=note;whiteSpace=wrap;html=1;size=14;verticalAlign=top;align=left;spacingTop=-6;rounded=0;shadow=0;comic=0;labelBackgroundColor=none;strokeWidth=1;fontFamily=Verdana;fontSize=12" parent="1" vertex="1">
          <mxGeometry x="70" y="30" width="100" height="35" as="geometry" />
        </mxCell>
        <mxCell id="7baba1c4bc27f4b0-41" value="Функция process_files" style="shape=note;whiteSpace=wrap;html=1;size=14;verticalAlign=top;align=left;spacingTop=-6;rounded=0;shadow=0;comic=0;labelBackgroundColor=none;strokeWidth=1;fontFamily=Verdana;fontSize=12" parent="1" vertex="1">
          <mxGeometry x="280" y="30" width="100" height="35" as="geometry" />
        </mxCell>
        <mxCell id="7baba1c4bc27f4b0-42" value="ОС или ФС" style="shape=note;whiteSpace=wrap;html=1;size=14;verticalAlign=top;align=left;spacingTop=-6;rounded=0;shadow=0;comic=0;labelBackgroundColor=none;strokeWidth=1;fontFamily=Verdana;fontSize=12" parent="1" vertex="1">
          <mxGeometry x="470" y="30" width="100" height="35" as="geometry" />
        </mxCell>
        <mxCell id="7baba1c4bc27f4b0-43" value="Почтовый клиент mail.ru" style="shape=note;whiteSpace=wrap;html=1;size=14;verticalAlign=top;align=left;spacingTop=-6;rounded=0;shadow=0;comic=0;labelBackgroundColor=none;strokeWidth=1;fontFamily=Verdana;fontSize=12" parent="1" vertex="1">
          <mxGeometry x="660" y="30" width="100" height="35" as="geometry" />
        </mxCell>
        <mxCell id="-zt7evYeH_7EeEriMYQJ-2" value="Функция &quot;process_files(sender_email, password, receiver_email)&quot; программы Stealer_Keylogger.py" style="text;html=1;strokeColor=none;fillColor=none;align=center;verticalAlign=middle;whiteSpace=wrap;rounded=0;fontSize=18;" parent="1" vertex="1">
          <mxGeometry x="-90" y="-80" width="1010" height="60" as="geometry" />
        </mxCell>
        <mxCell id="-zt7evYeH_7EeEriMYQJ-22" value="" style="html=1;verticalAlign=bottom;endArrow=block;entryX=0;entryY=0;labelBackgroundColor=none;fontFamily=Verdana;fontSize=12;edgeStyle=elbowEdgeStyle;elbow=vertical;" parent="1" edge="1">
          <mxGeometry relative="1" as="geometry">
            <mxPoint x="335" y="340" as="sourcePoint" />
            <mxPoint x="515" y="340" as="targetPoint" />
            <mxPoint as="offset" />
          </mxGeometry>
        </mxCell>
        <mxCell id="-zt7evYeH_7EeEriMYQJ-23" value="Поиск нужных файлов и &lt;br&gt;открытие их на считывание строк" style="edgeLabel;html=1;align=center;verticalAlign=middle;resizable=0;points=[];" parent="-zt7evYeH_7EeEriMYQJ-22" vertex="1" connectable="0">
          <mxGeometry x="0.314" relative="1" as="geometry">
            <mxPoint x="-33" y="-20" as="offset" />
          </mxGeometry>
        </mxCell>
        <mxCell id="-zt7evYeH_7EeEriMYQJ-29" value="" style="html=1;verticalAlign=bottom;endArrow=block;labelBackgroundColor=none;fontFamily=Verdana;fontSize=12;edgeStyle=elbowEdgeStyle;elbow=vertical;" parent="1" target="7baba1c4bc27f4b0-4" edge="1">
          <mxGeometry relative="1" as="geometry">
            <mxPoint x="340" y="480" as="sourcePoint" />
            <mxPoint x="590" y="470" as="targetPoint" />
            <mxPoint as="offset" />
            <Array as="points">
              <mxPoint x="680" y="480" />
            </Array>
          </mxGeometry>
        </mxCell>
        <mxCell id="-zt7evYeH_7EeEriMYQJ-30" value="Открытие соединения с почтовым сервером" style="edgeLabel;html=1;align=center;verticalAlign=middle;resizable=0;points=[];" parent="-zt7evYeH_7EeEriMYQJ-29" vertex="1" connectable="0">
          <mxGeometry x="0.314" relative="1" as="geometry">
            <mxPoint x="-42" y="-16" as="offset" />
          </mxGeometry>
        </mxCell>
        <mxCell id="-zt7evYeH_7EeEriMYQJ-31" value="Успешная авторизация" style="html=1;verticalAlign=bottom;endArrow=open;dashed=1;endSize=8;labelBackgroundColor=none;fontFamily=Verdana;fontSize=11;edgeStyle=elbowEdgeStyle;elbow=vertical;" parent="1" edge="1">
          <mxGeometry relative="1" as="geometry">
            <mxPoint x="330" y="510" as="targetPoint" />
            <Array as="points" />
            <mxPoint x="710" y="510" as="sourcePoint" />
          </mxGeometry>
        </mxCell>
        <mxCell id="-zt7evYeH_7EeEriMYQJ-37" value="" style="html=1;verticalAlign=bottom;endArrow=block;labelBackgroundColor=none;fontFamily=Verdana;fontSize=12;edgeStyle=elbowEdgeStyle;elbow=vertical;" parent="1" edge="1">
          <mxGeometry relative="1" as="geometry">
            <mxPoint x="320" y="600" as="sourcePoint" />
            <mxPoint x="130" y="600" as="targetPoint" />
            <Array as="points">
              <mxPoint x="260" y="600" />
              <mxPoint x="235.5" y="580" />
              <mxPoint x="220.5" y="560" />
            </Array>
          </mxGeometry>
        </mxCell>
        <mxCell id="-zt7evYeH_7EeEriMYQJ-38" value="Если отправить не удалось, &lt;br&gt;то вывод уведомления:&amp;nbsp;&lt;br&gt;Не удалось отправить &lt;br&gt;данные на почту&amp;nbsp;" style="edgeLabel;html=1;align=center;verticalAlign=middle;resizable=0;points=[];" parent="-zt7evYeH_7EeEriMYQJ-37" vertex="1" connectable="0">
          <mxGeometry x="0.2018" y="1" relative="1" as="geometry">
            <mxPoint x="17" y="-31" as="offset" />
          </mxGeometry>
        </mxCell>
        <mxCell id="-zt7evYeH_7EeEriMYQJ-43" value="Успешная отправка писем с хешированными строками" style="html=1;verticalAlign=bottom;endArrow=open;dashed=1;endSize=8;labelBackgroundColor=none;fontFamily=Verdana;fontSize=11;edgeStyle=elbowEdgeStyle;elbow=vertical;" parent="1" edge="1">
          <mxGeometry relative="1" as="geometry">
            <mxPoint x="330" y="600" as="targetPoint" />
            <Array as="points" />
            <mxPoint x="710" y="600" as="sourcePoint" />
          </mxGeometry>
        </mxCell>
        <mxCell id="1eUNo9QsRgCgycoDIhRz-3" value="Диаграмма последовательности UML" style="text;html=1;strokeColor=none;fillColor=none;align=center;verticalAlign=middle;whiteSpace=wrap;rounded=0;fontSize=18;" vertex="1" parent="1">
          <mxGeometry x="-80" y="-50" width="1010" height="60" as="geometry" />
        </mxCell>
      </root>
    </mxGraphModel>
  </diagram>
</mxfile>
